<svg width="223" height="66" viewBox="0 0 223 66" fill="none" xmlns="http://www.w3.org/2000/svg">
<g clip-path="url(#clip0_329_2058)">
<path d="M221.133 47.5535C220.889 47.5535 220.727 47.5935 220.524 47.7132C219.631 48.1524 218.9 48.1524 218.048 47.7132C217.845 47.6334 217.642 47.5535 217.439 47.5535C217.723 47.7931 218.048 47.9927 218.413 48.1125C219.063 48.6316 219.59 48.6316 220.24 48.1125C220.524 47.9528 220.808 47.7931 221.133 47.5535Z" fill="#A5C216"/>
<path d="M221.498 47.5935C221.742 47.6733 221.945 47.7532 222.107 47.9129C222.757 48.5118 223 49.1107 223 49.9492C223 56.4174 219.55 62.4065 213.908 65.7604C212.447 66.6388 210.945 64.6425 212.203 63.5245C215.126 60.9292 216.465 57.0163 215.775 53.2232C215.572 52.1452 215.491 51.0672 215.491 49.9492C215.491 49.0708 215.775 48.4719 216.384 47.9129C216.546 47.7532 216.749 47.6334 216.993 47.5935C217.358 47.9528 217.764 48.1924 218.251 48.3521C218.982 48.8711 219.509 48.8711 220.24 48.3521C220.727 48.1924 221.133 47.9528 221.498 47.5935Z" fill="#C81517"/>
<path d="M37.0183 12.5771C36.653 12.0181 36.1659 11.2595 35.557 10.3811C34.9482 9.50272 34.177 8.62432 33.2028 7.82577C32.2287 7.02722 31.0922 6.30853 29.7121 5.70962C28.3726 5.11071 26.7491 4.79129 24.9631 4.79129C22.6901 4.79129 20.4982 5.31034 18.4688 6.30853C16.4393 7.34664 14.6939 8.78403 13.1921 10.7005C11.6903 12.6171 10.5132 14.9328 9.62019 17.6479C8.72722 20.363 8.32132 23.3975 8.32132 26.7913C8.32132 30.4247 8.76781 33.7786 9.70137 36.8929C10.6349 40.0073 11.9338 42.6824 13.6792 44.9583C15.3839 47.1942 17.4134 48.9909 19.8082 50.2686C22.1624 51.5463 24.8008 52.1851 27.6826 52.1851C29.7527 52.1851 31.701 51.8657 33.5275 51.2269C35.3541 50.588 37.14 49.7096 38.8854 48.5517C39.5754 48.1125 40.1031 47.833 40.4278 47.5935C40.7931 47.3938 41.1584 47.274 41.6049 47.274C42.092 47.274 42.4979 47.4338 42.8632 47.7931C43.2285 48.1524 43.3909 48.5916 43.3909 49.1506C43.3909 49.8294 42.985 50.6679 42.1326 51.6661C41.3208 52.6642 40.1437 53.6225 38.6013 54.5009C37.0994 55.3793 35.2729 56.1779 33.1622 56.8167C31.0516 57.4555 28.6974 57.8149 26.0996 57.8149C21.7159 57.8149 17.9005 57.0163 14.6533 55.4192C11.4061 53.8221 8.68663 51.6661 6.53537 48.9111C4.38412 46.196 2.76053 43.0817 1.66461 39.5681C0.568682 36.0544 0.0410156 32.3412 0.0410156 28.4682C0.0410156 25.1143 0.487503 21.7604 1.42107 18.3666C2.35463 14.9728 3.85645 11.9383 5.88594 9.22323C7.95601 6.50817 10.5943 4.27223 13.8415 2.55535C17.0887 0.878403 21.0259 0 25.6531 0C28.5756 0 31.2139 0.399274 33.5275 1.15789C35.8818 1.91652 37.7895 2.83485 39.3725 3.95281C40.9555 5.07078 42.1326 6.2686 42.985 7.58621C43.7968 8.86388 44.2432 10.0218 44.2432 11.02C44.2432 12.1379 43.8779 13.0163 43.1067 13.6552C42.3761 14.294 41.5237 14.6534 40.5496 14.6534C40.0219 14.6534 39.4536 14.5336 38.8448 14.294C38.1954 14.0544 37.6271 13.4955 37.0183 12.5771Z" fill="#C90A00"/>
<path d="M69.4084 47.6733C69.4084 48.1924 69.3678 48.7913 69.2867 49.4301C69.2055 50.069 68.9619 50.7078 68.5561 51.3067C68.1502 51.9056 67.5413 52.4247 66.6889 52.784C65.8365 53.1833 64.6188 53.3829 63.0764 53.3829C61.047 53.3829 59.464 53.0236 58.368 52.3049C57.2315 51.5862 56.4197 50.7877 55.9326 49.8693C55.4456 48.951 55.1209 48.1125 55.0397 47.314C54.9585 46.5154 54.9179 46.0363 54.9179 45.9165C54.9179 44.3993 55.2832 43.1216 55.9732 42.0835C56.6633 41.0454 57.6374 40.167 58.8957 39.3684C60.154 38.5699 61.6558 37.8911 63.4417 37.2523C65.2277 36.6134 67.2166 35.9746 69.4084 35.2958C69.4084 39.4483 69.4084 43.5608 69.4084 47.6733ZM76.3493 27.5898C76.3493 26.5517 76.2681 25.314 76.1057 23.8367C75.9434 22.3993 75.4969 21.0018 74.7663 19.7241C74.0357 18.4065 72.8586 17.2886 71.235 16.3702C69.652 15.4519 67.379 15.0127 64.4565 15.0127C62.3052 15.0127 60.3569 15.2922 58.571 15.8113C56.785 16.3303 55.2426 17.049 53.9843 17.9274C52.6855 18.8058 51.7113 19.8439 50.9807 20.9619C50.2501 22.0799 49.8848 23.2377 49.8848 24.3956C49.8848 25.6733 50.2907 26.5118 51.0619 26.9909C51.8331 27.4701 52.5231 27.7096 53.0914 27.7096C54.3091 27.7096 55.1614 27.3103 55.6079 26.5517C56.0544 25.7931 56.4197 25.0345 56.7039 24.3158C56.8662 23.9564 57.1097 23.4773 57.3939 22.8784C57.678 22.2795 58.0839 21.7205 58.6116 21.2015C59.0986 20.6824 59.7481 20.2033 60.5193 19.8439C61.2905 19.4446 62.2646 19.245 63.4417 19.245C64.9436 19.245 66.0801 19.5245 66.9325 20.1234C67.7443 20.6824 68.3531 21.441 68.7184 22.2795C69.0837 23.1579 69.2867 24.0762 69.3678 25.0345C69.4084 25.9927 69.449 26.8711 69.449 27.6697C69.449 28.9873 69.449 30.3448 69.449 31.6624C66.2424 32.6207 63.32 33.4991 60.6411 34.3775C57.9621 35.2559 55.6891 36.2142 53.7814 37.3321C51.8737 38.4501 50.3719 39.7677 49.3165 41.2849C48.2612 42.8421 47.7335 44.7187 47.7335 46.9946C47.7335 49.6697 48.3424 51.7459 49.6006 53.1833C50.8589 54.6207 52.2796 55.6987 53.9032 56.3775C55.5268 57.0563 57.1097 57.4555 58.6116 57.5753C60.1134 57.6951 61.1687 57.735 61.6964 57.735C62.5488 57.735 63.4823 57.6951 64.4971 57.6152C65.5118 57.5354 66.5266 57.4156 67.5007 57.2559C68.4749 57.0962 69.449 56.8966 70.4232 56.6171C71.3973 56.3376 72.2497 56.0182 72.9803 55.5789C74.4822 54.7804 75.4157 53.8621 75.781 52.784C76.1463 51.706 76.3493 50.2686 76.4305 48.5118C76.3493 41.4846 76.3493 34.5372 76.3493 27.5898Z" fill="#C90A00"/>
<path d="M91.4487 55.2595C91.4487 55.9383 91.327 56.3775 91.0834 56.4973C90.8399 56.6171 90.434 56.6969 89.8251 56.6969C88.4045 56.6969 86.9433 56.6969 85.5226 56.6969C84.9544 56.6969 84.5891 56.6171 84.4673 56.4174C84.3455 56.2178 84.3049 55.8584 84.3049 55.2595C84.3049 42.363 84.3049 29.4664 84.3049 16.5699C84.3049 16.0508 84.3455 15.6515 84.4673 15.412C84.5891 15.1724 84.9544 15.0526 85.685 15.0526C87.065 15.0526 88.4451 15.0526 89.8251 15.0526C90.4746 15.0526 90.8805 15.1325 91.124 15.3321C91.327 15.5318 91.4487 15.931 91.4487 16.5699C91.4487 29.4664 91.4487 42.363 91.4487 55.2595Z" fill="#C90A00"/>
<path d="M169.868 55.1398C169.868 55.4991 169.827 55.8185 169.706 56.1379C169.584 56.4174 169.34 56.6171 168.894 56.7368C167.433 56.7368 165.971 56.7368 164.51 56.7368C163.861 56.7368 163.414 56.657 163.171 56.4973C162.887 56.3376 162.765 55.8984 162.765 55.1797C162.765 46.3557 162.765 37.5717 162.765 28.7477C162.765 27.7895 162.724 26.7913 162.602 25.6733C162.481 24.5554 162.156 23.5172 161.547 22.559C160.979 21.6007 160.045 20.7623 158.787 20.1234C157.529 19.4846 155.743 19.1252 153.389 19.1252C151.237 19.1252 149.614 19.4047 148.437 19.9637C147.26 20.5227 146.407 21.1615 145.879 21.8802C145.352 22.5989 145.027 23.3975 144.905 24.196C144.784 24.9946 144.743 25.6334 144.743 26.1125C144.743 35.775 144.743 45.4773 144.743 55.1398C144.743 55.8584 144.621 56.3376 144.337 56.4574C144.053 56.6171 143.647 56.6969 143.038 56.6969C141.739 56.6969 140.44 56.6969 139.101 56.6969C138.533 56.7368 138.127 56.6969 137.883 56.4973C137.68 56.2976 137.559 55.8984 137.559 55.2196C137.559 44.6388 137.559 34.098 137.559 23.5172C137.559 22 137.762 20.8421 138.127 20.0036C138.492 19.2051 139.385 18.4465 140.765 17.7677C142.105 17.0889 143.525 16.5699 145.027 16.2105C146.529 15.8512 147.99 15.5717 149.289 15.3721C150.628 15.1724 151.765 15.0926 152.739 15.0526C153.713 15.0127 154.282 15.0127 154.485 15.0127C158.259 15.0127 161.182 15.4519 163.292 16.3702C165.363 17.2886 166.905 18.4065 167.839 19.7641C168.813 21.0817 169.34 22.5191 169.503 23.9964C169.665 25.4737 169.746 26.8312 169.746 27.9492C169.868 37.0526 169.868 46.0762 169.868 55.1398Z" fill="#C90A00"/>
<path d="M198.078 47.6733C198.078 48.1924 198.037 48.7913 197.956 49.4301C197.875 50.069 197.631 50.7078 197.226 51.3067C196.82 51.9056 196.211 52.4247 195.358 52.784C194.506 53.1833 193.288 53.3829 191.746 53.3829C189.716 53.3829 188.133 53.0236 187.038 52.3049C185.901 51.5862 185.089 50.7877 184.602 49.8693C184.115 48.951 183.79 48.1125 183.709 47.314C183.628 46.5154 183.587 46.0363 183.587 45.9165C183.587 44.3993 183.953 43.1216 184.643 42.0835C185.333 41.0454 186.307 40.167 187.565 39.3684C188.823 38.5699 190.325 37.8911 192.111 37.2523C193.897 36.6134 195.886 35.9746 198.078 35.2958C198.078 39.4483 198.078 43.5608 198.078 47.6733ZM205.059 27.5898C205.059 26.5517 204.978 25.314 204.816 23.8367C204.653 22.3993 204.207 21.0018 203.476 19.7241C202.746 18.4065 201.569 17.2886 199.945 16.3702C198.362 15.4519 196.089 15.0127 193.167 15.0127C191.015 15.0127 189.067 15.2922 187.281 15.8113C185.495 16.3303 183.953 17.049 182.694 17.9274C181.396 18.8058 180.421 19.8439 179.691 20.9619C178.96 22.0799 178.595 23.2377 178.595 24.3956C178.595 25.6733 179.001 26.5118 179.772 26.9909C180.543 27.4701 181.233 27.7096 181.801 27.7096C183.019 27.7096 183.872 27.3103 184.318 26.5517C184.764 25.7931 185.13 25.0345 185.414 24.3158C185.576 23.9564 185.82 23.4773 186.104 22.8784C186.388 22.2795 186.794 21.7205 187.322 21.2015C187.809 20.6824 188.458 20.2033 189.229 19.8439C190.001 19.4446 190.975 19.245 192.152 19.245C193.654 19.245 194.79 19.5245 195.643 20.1234C196.454 20.6824 197.063 21.441 197.428 22.2795C197.794 23.1579 197.997 24.0762 198.078 25.0345C198.119 25.9927 198.159 26.8711 198.159 27.6697C198.159 28.9873 198.159 30.3448 198.159 31.6624C194.953 32.6207 192.03 33.4991 189.351 34.3775C186.672 35.2559 184.399 36.2142 182.491 37.3321C180.584 38.4501 179.082 39.7677 178.027 41.2849C176.971 42.8421 176.444 44.7187 176.444 46.9946C176.444 49.6697 177.052 51.7459 178.311 53.1833C179.569 54.6207 180.99 55.6987 182.613 56.3775C184.237 57.0563 185.82 57.4555 187.322 57.5753C188.823 57.6951 189.879 57.735 190.406 57.735C191.259 57.735 192.192 57.6951 193.207 57.6152C194.222 57.5354 195.237 57.4156 196.211 57.2559C197.185 57.0962 198.159 56.8966 199.133 56.6171C200.107 56.3376 200.96 56.0182 201.69 55.5789C203.192 54.7804 204.126 53.8621 204.491 52.784C204.856 51.706 205.059 50.2686 205.141 48.5118C205.059 41.4846 205.059 34.5372 205.059 27.5898Z" fill="#C90A00"/>
<path d="M104.072 35.0962C104.234 37.8911 104.681 40.2868 105.412 42.2831C106.142 44.3194 107.076 45.9564 108.212 47.274C109.349 48.5917 110.607 49.5499 112.028 50.2287C113.448 50.9074 114.909 51.2269 116.452 51.2269C118.847 51.2269 120.957 50.6279 122.784 49.3902C124.61 48.1524 126.153 46.4755 127.492 44.3194C128.061 43.3612 128.507 42.7623 128.751 42.4828C128.994 42.2033 129.359 42.0436 129.847 42.0436C130.131 42.0436 130.455 42.1633 130.861 42.363C131.267 42.5626 131.47 43.0817 131.47 43.9201C131.47 44.4392 131.227 45.4374 130.699 46.9546C130.212 48.4319 129.359 49.9891 128.142 51.5862C126.924 53.1833 125.3 54.6207 123.23 55.8185C121.16 57.0563 118.563 57.6552 115.478 57.6552C114.26 57.6552 112.961 57.5354 111.581 57.2559C110.242 56.9764 108.862 56.4973 107.563 55.8185C106.223 55.0998 104.965 54.1815 103.747 53.0236C102.53 51.8657 101.515 50.3884 100.581 48.5517C99.526 46.5554 98.836 44.5191 98.5112 42.363C98.1865 40.2468 98.0242 38.2505 98.0242 36.4138C98.0242 33.5789 98.2677 31.1434 98.7954 29.0672C99.2824 26.9909 99.9725 25.2341 100.744 23.7568C100.947 23.3176 101.393 22.6388 102.043 21.6806C102.692 20.7223 103.585 19.7241 104.803 18.7659C106.02 17.8076 107.482 16.9292 109.227 16.1706C110.972 15.412 113.083 15.0127 115.559 15.0127C118.684 15.0127 121.282 15.5717 123.271 16.7296C125.26 17.8875 126.843 19.245 127.939 20.7622C129.075 22.3194 129.847 23.8766 130.252 25.4338C130.699 26.9909 130.902 28.1887 130.902 28.9873C130.902 30.1053 130.618 30.7441 130.09 30.9837C129.562 31.2232 129.035 31.3829 128.588 31.5027C120.389 32.7005 112.231 33.8984 104.072 35.0962ZM123.19 28.3085C122.906 25.7931 122.013 23.6769 120.43 22C118.847 20.323 116.939 19.4846 114.625 19.4846C111.378 19.4846 108.902 20.5626 107.238 22.7586C105.574 24.9546 104.519 27.7495 104.072 31.2232C110.445 30.265 116.817 29.2668 123.19 28.3085Z" fill="#C90A00"/>
</g>
<defs>
<clipPath id="clip0_329_2058">
<rect width="223" height="66" fill="white"/>
</clipPath>
</defs>
</svg>
